<mxfile host="app.diagrams.net" agent="Mozilla/5.0 (Windows NT 10.0; Win64; x64) AppleWebKit/537.36 (KHTML, like Gecko) Chrome/134.0.0.0 Safari/537.36" version="26.2.9">
  <diagram name="Page-1" id="necp2FuX5oxYkYPcJ2nj">
    <mxGraphModel dx="1043" dy="670" grid="1" gridSize="10" guides="1" tooltips="1" connect="1" arrows="1" fold="1" page="1" pageScale="1" pageWidth="1654" pageHeight="2336" math="0" shadow="0">
      <root>
        <mxCell id="0" />
        <mxCell id="1" parent="0" />
        <mxCell id="t3kPsQ0_n273vdxYHdab-4" style="edgeStyle=orthogonalEdgeStyle;rounded=0;orthogonalLoop=1;jettySize=auto;html=1;" parent="1" source="t3kPsQ0_n273vdxYHdab-1" target="t3kPsQ0_n273vdxYHdab-5" edge="1">
          <mxGeometry relative="1" as="geometry">
            <mxPoint x="580" y="160" as="targetPoint" />
          </mxGeometry>
        </mxCell>
        <mxCell id="t3kPsQ0_n273vdxYHdab-1" value="User Enters System" style="rounded=1;whiteSpace=wrap;html=1;" parent="1" vertex="1">
          <mxGeometry x="520" y="90" width="120" height="30" as="geometry" />
        </mxCell>
        <mxCell id="t3kPsQ0_n273vdxYHdab-3" style="edgeStyle=orthogonalEdgeStyle;rounded=0;orthogonalLoop=1;jettySize=auto;html=1;entryX=0.5;entryY=0;entryDx=0;entryDy=0;" parent="1" target="t3kPsQ0_n273vdxYHdab-1" edge="1">
          <mxGeometry relative="1" as="geometry">
            <mxPoint x="580" y="40" as="sourcePoint" />
          </mxGeometry>
        </mxCell>
        <mxCell id="t3kPsQ0_n273vdxYHdab-6" style="edgeStyle=orthogonalEdgeStyle;rounded=0;orthogonalLoop=1;jettySize=auto;html=1;" parent="1" source="t3kPsQ0_n273vdxYHdab-5" edge="1">
          <mxGeometry relative="1" as="geometry">
            <mxPoint x="580" y="240" as="targetPoint" />
          </mxGeometry>
        </mxCell>
        <mxCell id="t3kPsQ0_n273vdxYHdab-5" value="Meal Suggestion Interface" style="rounded=1;whiteSpace=wrap;html=1;" parent="1" vertex="1">
          <mxGeometry x="490" y="160" width="180" height="30" as="geometry" />
        </mxCell>
        <mxCell id="t3kPsQ0_n273vdxYHdab-8" style="edgeStyle=orthogonalEdgeStyle;rounded=0;orthogonalLoop=1;jettySize=auto;html=1;" parent="1" source="t3kPsQ0_n273vdxYHdab-7" edge="1">
          <mxGeometry relative="1" as="geometry">
            <mxPoint x="580" y="400" as="targetPoint" />
          </mxGeometry>
        </mxCell>
        <mxCell id="t3kPsQ0_n273vdxYHdab-7" value="User Selects Meal" style="rhombus;whiteSpace=wrap;html=1;" parent="1" vertex="1">
          <mxGeometry x="500" y="240" width="160" height="110" as="geometry" />
        </mxCell>
        <mxCell id="t3kPsQ0_n273vdxYHdab-10" style="edgeStyle=orthogonalEdgeStyle;rounded=0;orthogonalLoop=1;jettySize=auto;html=1;" parent="1" source="t3kPsQ0_n273vdxYHdab-9" edge="1">
          <mxGeometry relative="1" as="geometry">
            <mxPoint x="585" y="480" as="targetPoint" />
          </mxGeometry>
        </mxCell>
        <mxCell id="t3kPsQ0_n273vdxYHdab-9" value="Display Detailed Recipe" style="rounded=1;whiteSpace=wrap;html=1;" parent="1" vertex="1">
          <mxGeometry x="510" y="400" width="150" height="30" as="geometry" />
        </mxCell>
        <mxCell id="t3kPsQ0_n273vdxYHdab-12" style="edgeStyle=orthogonalEdgeStyle;rounded=0;orthogonalLoop=1;jettySize=auto;html=1;exitX=0;exitY=1;exitDx=0;exitDy=0;" parent="1" source="t3kPsQ0_n273vdxYHdab-11" target="t3kPsQ0_n273vdxYHdab-13" edge="1">
          <mxGeometry relative="1" as="geometry">
            <mxPoint x="440" y="640" as="targetPoint" />
            <Array as="points">
              <mxPoint x="440" y="555" />
            </Array>
          </mxGeometry>
        </mxCell>
        <mxCell id="t3kPsQ0_n273vdxYHdab-14" value="No" style="edgeLabel;html=1;align=center;verticalAlign=middle;resizable=0;points=[];fontSize=14;" parent="t3kPsQ0_n273vdxYHdab-12" connectable="0" vertex="1">
          <mxGeometry x="0.3554" y="-2" relative="1" as="geometry">
            <mxPoint as="offset" />
          </mxGeometry>
        </mxCell>
        <mxCell id="t3kPsQ0_n273vdxYHdab-29" style="edgeStyle=orthogonalEdgeStyle;rounded=0;orthogonalLoop=1;jettySize=auto;html=1;exitX=1;exitY=1;exitDx=0;exitDy=0;" parent="1" source="t3kPsQ0_n273vdxYHdab-11" target="t3kPsQ0_n273vdxYHdab-30" edge="1">
          <mxGeometry relative="1" as="geometry">
            <mxPoint x="760" y="640" as="targetPoint" />
          </mxGeometry>
        </mxCell>
        <mxCell id="t3kPsQ0_n273vdxYHdab-31" value="Yes" style="edgeLabel;html=1;align=center;verticalAlign=middle;resizable=0;points=[];fontSize=14;" parent="t3kPsQ0_n273vdxYHdab-29" connectable="0" vertex="1">
          <mxGeometry x="0.4013" relative="1" as="geometry">
            <mxPoint as="offset" />
          </mxGeometry>
        </mxCell>
        <mxCell id="t3kPsQ0_n273vdxYHdab-11" value="Is User Satisfied?" style="rhombus;whiteSpace=wrap;html=1;" parent="1" vertex="1">
          <mxGeometry x="510" y="480" width="150" height="100" as="geometry" />
        </mxCell>
        <mxCell id="t3kPsQ0_n273vdxYHdab-15" style="edgeStyle=orthogonalEdgeStyle;rounded=0;orthogonalLoop=1;jettySize=auto;html=1;" parent="1" source="t3kPsQ0_n273vdxYHdab-13" edge="1">
          <mxGeometry relative="1" as="geometry">
            <mxPoint x="440" y="690" as="targetPoint" />
          </mxGeometry>
        </mxCell>
        <mxCell id="t3kPsQ0_n273vdxYHdab-13" value="Display Youtube Video Link" style="rounded=1;whiteSpace=wrap;html=1;" parent="1" vertex="1">
          <mxGeometry x="350" y="620" width="180" height="30" as="geometry" />
        </mxCell>
        <mxCell id="t3kPsQ0_n273vdxYHdab-17" style="edgeStyle=orthogonalEdgeStyle;rounded=0;orthogonalLoop=1;jettySize=auto;html=1;exitX=0;exitY=1;exitDx=0;exitDy=0;" parent="1" source="t3kPsQ0_n273vdxYHdab-16" target="t3kPsQ0_n273vdxYHdab-18" edge="1">
          <mxGeometry relative="1" as="geometry">
            <mxPoint x="320" y="840" as="targetPoint" />
            <Array as="points">
              <mxPoint x="320" y="758" />
            </Array>
          </mxGeometry>
        </mxCell>
        <mxCell id="t3kPsQ0_n273vdxYHdab-20" value="Yes" style="edgeLabel;html=1;align=center;verticalAlign=middle;resizable=0;points=[];fontSize=14;" parent="t3kPsQ0_n273vdxYHdab-17" connectable="0" vertex="1">
          <mxGeometry x="0.3575" y="-2" relative="1" as="geometry">
            <mxPoint as="offset" />
          </mxGeometry>
        </mxCell>
        <mxCell id="t3kPsQ0_n273vdxYHdab-25" style="edgeStyle=orthogonalEdgeStyle;rounded=0;orthogonalLoop=1;jettySize=auto;html=1;exitX=1;exitY=1;exitDx=0;exitDy=0;" parent="1" source="t3kPsQ0_n273vdxYHdab-16" target="t3kPsQ0_n273vdxYHdab-26" edge="1">
          <mxGeometry relative="1" as="geometry">
            <mxPoint x="560" y="840" as="targetPoint" />
            <Array as="points">
              <mxPoint x="475" y="760" />
              <mxPoint x="560" y="760" />
            </Array>
          </mxGeometry>
        </mxCell>
        <mxCell id="t3kPsQ0_n273vdxYHdab-27" value="No" style="edgeLabel;html=1;align=center;verticalAlign=middle;resizable=0;points=[];fontSize=14;" parent="t3kPsQ0_n273vdxYHdab-25" connectable="0" vertex="1">
          <mxGeometry x="0.3122" y="-1" relative="1" as="geometry">
            <mxPoint as="offset" />
          </mxGeometry>
        </mxCell>
        <mxCell id="t3kPsQ0_n273vdxYHdab-16" value="User clicks Video links" style="rhombus;whiteSpace=wrap;html=1;" parent="1" vertex="1">
          <mxGeometry x="370" y="690" width="140" height="90" as="geometry" />
        </mxCell>
        <mxCell id="t3kPsQ0_n273vdxYHdab-21" style="edgeStyle=orthogonalEdgeStyle;rounded=0;orthogonalLoop=1;jettySize=auto;html=1;" parent="1" source="t3kPsQ0_n273vdxYHdab-18" target="t3kPsQ0_n273vdxYHdab-22" edge="1">
          <mxGeometry relative="1" as="geometry">
            <mxPoint x="320" y="920" as="targetPoint" />
          </mxGeometry>
        </mxCell>
        <mxCell id="t3kPsQ0_n273vdxYHdab-18" value="Open Youtube Video" style="rounded=1;whiteSpace=wrap;html=1;" parent="1" vertex="1">
          <mxGeometry x="260" y="830" width="120" height="30" as="geometry" />
        </mxCell>
        <mxCell id="t3kPsQ0_n273vdxYHdab-23" style="edgeStyle=orthogonalEdgeStyle;rounded=0;orthogonalLoop=1;jettySize=auto;html=1;exitX=0.5;exitY=1;exitDx=0;exitDy=0;" parent="1" source="t3kPsQ0_n273vdxYHdab-22" edge="1">
          <mxGeometry relative="1" as="geometry">
            <mxPoint x="510" y="1040" as="targetPoint" />
            <Array as="points">
              <mxPoint x="320" y="1040" />
            </Array>
          </mxGeometry>
        </mxCell>
        <mxCell id="t3kPsQ0_n273vdxYHdab-22" value="User Watches Video" style="rounded=1;whiteSpace=wrap;html=1;" parent="1" vertex="1">
          <mxGeometry x="260" y="920" width="120" height="30" as="geometry" />
        </mxCell>
        <mxCell id="t3kPsQ0_n273vdxYHdab-39" style="edgeStyle=orthogonalEdgeStyle;rounded=0;orthogonalLoop=1;jettySize=auto;html=1;exitX=1;exitY=0.5;exitDx=0;exitDy=0;entryX=1;entryY=0.5;entryDx=0;entryDy=0;" parent="1" source="t3kPsQ0_n273vdxYHdab-24" target="t3kPsQ0_n273vdxYHdab-11" edge="1">
          <mxGeometry relative="1" as="geometry">
            <mxPoint x="920" y="520" as="targetPoint" />
            <Array as="points">
              <mxPoint x="921" y="1045" />
              <mxPoint x="921" y="530" />
            </Array>
          </mxGeometry>
        </mxCell>
        <mxCell id="t3kPsQ0_n273vdxYHdab-24" value="Return to Recipe" style="rounded=1;whiteSpace=wrap;html=1;" parent="1" vertex="1">
          <mxGeometry x="510" y="1030" width="120" height="30" as="geometry" />
        </mxCell>
        <mxCell id="t3kPsQ0_n273vdxYHdab-28" style="edgeStyle=orthogonalEdgeStyle;rounded=0;orthogonalLoop=1;jettySize=auto;html=1;exitX=0.75;exitY=0;exitDx=0;exitDy=0;" parent="1" source="t3kPsQ0_n273vdxYHdab-26" target="t3kPsQ0_n273vdxYHdab-11" edge="1">
          <mxGeometry relative="1" as="geometry">
            <Array as="points">
              <mxPoint x="590" y="710" />
              <mxPoint x="560" y="710" />
            </Array>
          </mxGeometry>
        </mxCell>
        <mxCell id="t3kPsQ0_n273vdxYHdab-26" value="Return to Recipe" style="rounded=1;whiteSpace=wrap;html=1;" parent="1" vertex="1">
          <mxGeometry x="500" y="840" width="120" height="30" as="geometry" />
        </mxCell>
        <mxCell id="t3kPsQ0_n273vdxYHdab-32" style="edgeStyle=orthogonalEdgeStyle;rounded=0;orthogonalLoop=1;jettySize=auto;html=1;" parent="1" source="t3kPsQ0_n273vdxYHdab-30" target="t3kPsQ0_n273vdxYHdab-33" edge="1">
          <mxGeometry relative="1" as="geometry">
            <mxPoint x="760" y="760" as="targetPoint" />
          </mxGeometry>
        </mxCell>
        <mxCell id="t3kPsQ0_n273vdxYHdab-30" value="User Prepares Meal" style="rounded=1;whiteSpace=wrap;html=1;" parent="1" vertex="1">
          <mxGeometry x="700" y="640" width="120" height="30" as="geometry" />
        </mxCell>
        <mxCell id="t3kPsQ0_n273vdxYHdab-34" style="edgeStyle=orthogonalEdgeStyle;rounded=0;orthogonalLoop=1;jettySize=auto;html=1;" parent="1" source="t3kPsQ0_n273vdxYHdab-33" target="t3kPsQ0_n273vdxYHdab-35" edge="1">
          <mxGeometry relative="1" as="geometry">
            <mxPoint x="760" y="880" as="targetPoint" />
          </mxGeometry>
        </mxCell>
        <mxCell id="t3kPsQ0_n273vdxYHdab-33" value="Optional: User Rates Recipe" style="rounded=1;whiteSpace=wrap;html=1;" parent="1" vertex="1">
          <mxGeometry x="660" y="760" width="200" height="30" as="geometry" />
        </mxCell>
        <mxCell id="t3kPsQ0_n273vdxYHdab-36" style="edgeStyle=orthogonalEdgeStyle;rounded=0;orthogonalLoop=1;jettySize=auto;html=1;" parent="1" source="t3kPsQ0_n273vdxYHdab-35" edge="1">
          <mxGeometry relative="1" as="geometry">
            <mxPoint x="760" y="960" as="targetPoint" />
          </mxGeometry>
        </mxCell>
        <mxCell id="t3kPsQ0_n273vdxYHdab-35" value="System Updates Preferences" style="rounded=1;whiteSpace=wrap;html=1;" parent="1" vertex="1">
          <mxGeometry x="660" y="880" width="200" height="30" as="geometry" />
        </mxCell>
        <mxCell id="t3kPsQ0_n273vdxYHdab-37" value="Start" style="strokeWidth=2;html=1;shape=mxgraph.flowchart.terminator;whiteSpace=wrap;" parent="1" vertex="1">
          <mxGeometry x="540" y="20" width="80" height="40" as="geometry" />
        </mxCell>
        <mxCell id="t3kPsQ0_n273vdxYHdab-38" value="End" style="ellipse;whiteSpace=wrap;html=1;" parent="1" vertex="1">
          <mxGeometry x="725" y="960" width="70" height="40" as="geometry" />
        </mxCell>
        <mxCell id="kE16p049zfe99XfU7KQA-1" value="&lt;font style=&quot;font-size: 21px;&quot;&gt;MEAL DETAILING&lt;/font&gt;" style="text;html=1;align=center;verticalAlign=middle;resizable=0;points=[];autosize=1;strokeColor=none;fillColor=none;" vertex="1" parent="1">
          <mxGeometry x="110" y="1080" width="200" height="40" as="geometry" />
        </mxCell>
      </root>
    </mxGraphModel>
  </diagram>
</mxfile>
